<?xml version="1.0" standalone="no"?>
<!DOCTYPE svg PUBLIC "-//W3C//DTD SVG 20010904//EN"
 "http://www.w3.org/TR/2001/REC-SVG-20010904/DTD/svg10.dtd">
<svg version="1.0" xmlns="http://www.w3.org/2000/svg"
 width="200.000000pt" height="200.000000pt" viewBox="0 0 452.000000 452.000000"
 preserveAspectRatio="xMidYMid meet">

<g transform="translate(0.000000,452.000000) scale(0.100000,-0.100000)"
fill="#000000" stroke="none">
<path d="M543 2391 c84 -171 156 -310 160 -308 13 4 388 572 379 574 -4 1
-144 9 -312 18 -168 8 -322 18 -342 21 l-37 6 152 -311z m204 238 c128 -7 238
-16 244 -20 11 -7 -269 -440 -283 -436 -6 2 -238 462 -238 473 0 4 10 4 23 1
12 -3 127 -11 254 -18z"/>
<path d="M540 2596 c0 -10 162 -336 170 -341 6 -4 220 306 220 319 0 1 -66 6
-147 10 -82 4 -169 9 -195 13 -27 3 -48 3 -48 -1z"/>
<path d="M1472 2648 c3 -43 3 -43 46 -46 l42 -3 0 -190 0 -189 50 0 50 0 0
190 0 190 45 0 45 0 0 45 0 45 -141 0 -140 0 3 -42z"/>
<path d="M1790 2455 l0 -235 121 0 120 0 -3 43 -3 42 -68 3 -68 3 3 52 3 51
45 1 45 0 3 43 3 42 -50 0 -51 0 0 50 0 49 68 3 67 3 3 43 3 42 -120 0 -121 0
0 -235z"/>
<path d="M2092 2674 c-21 -15 -22 -20 -22 -218 0 -248 -7 -236 133 -236 119 0
137 13 137 97 l0 53 -49 0 c-47 0 -50 -2 -53 -27 -2 -23 -8 -29 -35 -31 l-33
-3 0 146 0 146 33 -3 c27 -2 33 -8 35 -30 3 -26 6 -28 53 -28 l49 0 0 46 c0
45 -13 82 -34 96 -6 4 -52 8 -101 8 -66 0 -97 -4 -113 -16z"/>
<path d="M2400 2455 l0 -235 50 0 50 0 0 95 0 95 35 0 35 0 0 -95 0 -95 50 0
50 0 0 235 0 235 -50 0 -50 0 0 -90 0 -90 -35 0 -35 0 0 90 0 90 -50 0 -50 0
0 -235z"/>
<path d="M2730 2455 l0 -235 50 0 49 0 3 118 3 117 35 -117 34 -118 48 0 48 0
0 235 0 235 -50 0 -50 0 0 -97 c-1 -109 -6 -107 -40 15 l-23 82 -53 0 -54 0 0
-235z"/>
<path d="M3060 2455 l0 -235 50 0 50 0 0 235 0 235 -50 0 -50 0 0 -235z"/>
<path d="M3240 2670 c-19 -19 -20 -33 -20 -213 0 -247 -6 -237 135 -237 96 0
105 2 119 22 10 14 16 44 16 75 l0 53 -50 0 c-49 0 -50 -1 -50 -30 0 -28 -3
-30 -35 -30 l-36 0 3 143 3 142 33 3 c30 3 32 1 32 -27 0 -30 1 -31 50 -31
l50 0 0 55 c0 84 -16 95 -135 95 -82 0 -98 -3 -115 -20z"/>
<path d="M3630 2686 c0 -4 -75 -352 -95 -443 -5 -22 -2 -23 50 -23 52 0 55 1
55 25 0 23 3 25 49 25 44 0 50 -3 53 -22 3 -20 10 -23 56 -26 28 -2 52 0 52 4
0 11 -79 383 -91 427 l-10 37 -59 0 c-33 0 -60 -2 -60 -4z m85 -283 c6 -43 6
-43 -24 -43 -35 0 -34 -2 -21 60 22 99 22 99 31 60 4 -19 10 -54 14 -77z"/>
<path d="M3890 2455 l0 -235 120 0 120 0 0 45 0 44 -67 3 -68 3 -3 188 -2 187
-50 0 -50 0 0 -235z"/>
<path d="M1300 2180 c0 -438 2 -500 15 -500 13 0 15 62 15 500 0 438 -2 500
-15 500 -13 0 -15 -62 -15 -500z"/>
<path d="M282 2534 c47 -103 395 -793 399 -794 10 0 491 731 485 738 -4 3 -35
8 -69 10 l-62 3 -165 -250 c-91 -138 -168 -251 -172 -251 -4 0 -69 122 -143
270 -135 269 -136 270 -168 270 -18 0 -49 3 -71 7 -22 3 -37 2 -34 -3z"/>
<path d="M1490 2078 c27 -122 70 -318 78 -358 l8 -35 59 0 60 0 13 65 c8 36
31 143 51 238 l38 172 -53 0 -52 0 -16 -92 c-33 -182 -38 -204 -45 -183 -4 11
-18 77 -31 148 l-24 127 -52 0 -52 0 18 -82z"/>
<path d="M1885 2148 c-5 -15 -83 -385 -92 -435 l-6 -33 51 0 c48 0 51 1 57 31
7 29 9 30 53 27 40 -3 47 -6 52 -28 5 -22 12 -25 59 -28 41 -2 52 0 49 10 -3
7 -27 115 -54 240 l-49 228 -58 0 c-37 0 -59 -4 -62 -12z m78 -246 c8 -40 12
-74 9 -77 -3 -3 -16 -5 -29 -5 -17 0 -23 6 -23 23 0 29 22 139 26 134 2 -2 10
-36 17 -75z"/>
<path d="M2150 1920 l0 -241 118 3 117 3 0 45 0 45 -67 3 -68 3 0 189 0 190
-50 0 -50 0 0 -240z"/>
<path d="M2430 1919 l0 -240 48 3 47 3 3 238 2 237 -50 0 -50 0 0 -241z"/>
<path d="M2590 1920 l0 -240 100 0 c54 0 110 5 124 11 42 19 48 51 44 249 -4
228 2 220 -159 220 l-109 0 0 -240z m168 3 l3 -143 -41 0 -40 0 0 139 c0 148
1 152 50 148 l25 -2 3 -142z"/>
<path d="M2991 2123 c-12 -51 -91 -426 -91 -435 0 -5 22 -8 49 -8 47 0 50 2
56 31 7 29 9 30 53 27 40 -3 47 -6 52 -28 5 -22 12 -25 58 -28 29 -2 52 -1 52
2 0 2 -18 85 -39 183 -22 98 -45 204 -51 236 l-11 57 -59 0 -59 0 -10 -37z
m86 -220 c6 -38 8 -71 6 -75 -2 -5 -16 -8 -30 -8 -23 0 -25 3 -19 33 3 17 8
51 12 75 4 23 10 42 14 42 4 0 11 -30 17 -67z"/>
<path d="M3200 2116 l0 -45 43 -3 42 -3 3 -192 2 -193 50 0 50 0 0 195 0 195
40 0 40 0 0 45 0 45 -135 0 -135 0 0 -44z"/>
<path d="M3520 1919 l0 -240 48 3 47 3 3 238 2 237 -50 0 -50 0 0 -241z"/>
<path d="M3699 2141 c-23 -19 -24 -24 -27 -197 -4 -196 -1 -214 30 -244 18
-16 35 -20 99 -20 92 0 124 12 139 53 13 40 13 335 -1 376 -15 43 -35 51 -132
51 -69 0 -89 -4 -108 -19z m141 -221 l0 -140 -35 0 -35 0 0 140 0 140 35 0 35
0 0 -140z"/>
<path d="M4002 1923 l3 -238 48 -3 47 -3 0 117 c0 66 4 114 9 109 4 -6 23 -59
41 -118 l34 -108 43 3 43 3 3 238 2 237 -47 0 -48 0 0 -97 c0 -59 -4 -93 -9
-87 -5 5 -21 48 -36 97 l-27 87 -54 0 -54 0 2 -237z"/>
</g>
</svg>
